<svg width="78" height="78" viewBox="0 0 78 78" fill="none" xmlns="http://www.w3.org/2000/svg">
<rect width="78" height="78" rx="20" fill="#AA143C"/>
<path d="M41.8516 48.8125L45.0156 45.6094C47.125 43.5 48.7135 41.8464 49.7812 40.6484C50.8229 39.4505 51.6562 38.2526 52.2812 37.0547C52.9062 35.8828 53.2188 34.6589 53.2188 33.3828C53.2188 31.7943 52.8411 30.6484 52.0859 29.9453C51.3307 29.2422 50.3281 28.8906 49.0781 28.8906C47.125 28.8906 45.4974 29.7109 44.1953 31.3516C43.8568 31.7682 43.6875 32.1328 43.6875 32.4453C43.6875 32.6016 43.7005 32.7188 43.7266 32.7969L43.5703 32.9922L43.2578 32.7969L41.2656 31.2344C42.0469 29.724 43.1146 28.5521 44.4688 27.7188C45.8229 26.9115 47.3464 26.5078 49.0391 26.5078C51.1224 26.5078 52.8151 27.1328 54.1172 28.3828C55.3932 29.6328 56.0312 31.3255 56.0312 33.4609C56.0312 34.8672 55.6927 36.2344 55.0156 37.5625C54.3385 38.8906 53.4792 40.1536 52.4375 41.3516C51.3698 42.5495 49.8984 44.0729 48.0234 45.9219L45.3672 48.6172H54.4297C54.8464 48.6172 55.1589 48.5911 55.3672 48.5391C55.5495 48.487 55.7188 48.3828 55.875 48.2266H56.1484V51H41.8516V48.8125Z" fill="white"/>
<path d="M33.5073 51.3691C35.2915 51.3691 36.8296 50.877 38.1216 49.8926C39.3931 48.8877 40.0288 47.6982 40.0288 46.3242C40.0288 45.2578 39.6699 44.3862 38.9521 43.7095C38.2344 43.0122 37.0347 42.3662 35.353 41.7715L27.9395 39.1567V36.2959C27.9395 34.9629 28.5034 33.8555 29.6313 32.9736C30.7593 32.0918 32.1538 31.6509 33.8149 31.6509C34.7788 31.6509 35.4351 31.8457 35.7837 32.2354C36.1118 32.6045 36.2964 33.3838 36.3374 34.5732L36.3682 36.1421C37.332 36.4087 38.1729 36.3882 38.8906 36.0806C39.5879 35.7729 39.9365 35.2705 39.9365 34.5732C39.9365 33.917 39.5879 33.2402 38.8906 32.543C38.1934 31.8457 37.291 31.2305 36.1836 30.6973C35.0557 30.1641 33.8867 29.8154 32.6768 29.6514C30.5029 29.6514 28.729 30.2666 27.355 31.4971C25.981 32.7275 25.2837 34.3477 25.2632 36.3574L25.3555 45.3398C25.3555 45.791 25.335 46.3447 25.2939 47.001C25.2324 47.6572 25.1606 48.1187 25.0786 48.3853L21.9717 49.0005V50.231L24.0327 50.9077C24.4224 51.0103 24.7812 51.1128 25.1094 51.2153C25.4375 51.3179 25.7041 51.3691 25.9092 51.3691C26.8115 51.3691 27.355 50.8564 27.5396 49.8311L27.8779 48.0469L27.2935 47.8931C28.4214 49.144 29.4878 50.0361 30.4927 50.5693C31.4771 51.1025 32.4819 51.3691 33.5073 51.3691ZM32.769 49.2466C31.0259 49.2466 29.416 48.375 27.9395 46.6318V41.2485L34.5532 43.1558C36.0298 43.5864 36.7681 44.499 36.7681 45.8936C36.7681 46.7549 36.3682 47.5342 35.5684 48.2314C34.748 48.9082 33.8149 49.2466 32.769 49.2466Z" fill="white"/>
</svg>
